<svg width="1600" height="1000" viewBox="0 0 1600 1000" fill="none" xmlns="http://www.w3.org/2000/svg">
<rect width="1600" height="1000" fill="#07101B"/>
<rect x="98" y="86" width="1404" height="828" rx="44" fill="#0B1730"/>
<rect x="176" y="170" width="360" height="638" rx="34" fill="#112544"/>
<rect x="620" y="170" width="360" height="638" rx="34" fill="#112544"/>
<rect x="1064" y="170" width="360" height="638" rx="34" fill="#112544"/>
<rect x="244" y="252" width="224" height="224" rx="26" fill="#2F86EB"/>
<path d="M332 304L410 364L332 424V304Z" fill="#F1F6FF"/>
<rect x="688" y="252" width="224" height="224" rx="26" fill="#183B65"/>
<rect x="1132" y="252" width="224" height="224" rx="26" fill="#9BC9FF"/>
<rect x="228" y="532" width="240" height="22" rx="11" fill="#F1F6FF"/>
<rect x="672" y="532" width="240" height="22" rx="11" fill="#F1F6FF"/>
<rect x="1116" y="532" width="240" height="22" rx="11" fill="#F1F6FF"/>
</svg>
