<svg width="1600" height="1000" viewBox="0 0 1600 1000" fill="none" xmlns="http://www.w3.org/2000/svg">
<rect width="1600" height="1000" fill="#07111D"/>
<rect x="84" y="80" width="1432" height="840" rx="42" fill="#0D1D34"/>
<rect x="144" y="150" width="1312" height="88" rx="24" fill="#122742"/>
<rect x="198" y="182" width="264" height="24" rx="12" fill="#F1F6FF"/>
<rect x="144" y="292" width="560" height="532" rx="28" fill="#112544"/>
<rect x="196" y="352" width="456" height="220" rx="22" fill="#0B1730"/>
<path d="M236 546C298 484 360 468 416 470C478 472 522 432 596 388" stroke="#7BE0C1" stroke-width="18" stroke-linecap="round"/>
<rect x="756" y="292" width="700" height="164" rx="28" fill="#112544"/>
<rect x="756" y="484" width="700" height="340" rx="28" fill="#0B1730"/>
<rect x="808" y="352" width="206" height="22" rx="11" fill="#9BC9FF"/>
<rect x="808" y="548" width="212" height="22" rx="11" fill="#F1F6FF"/>
</svg>
