<svg width="1266" height="256" viewBox="0 0 1266 256" fill="none" xmlns="http://www.w3.org/2000/svg">
<path d="M256 128C256 198.692 198.692 256 128 256C57.3076 256 0 198.692 0 128C0 57.3076 57.3076 0 128 0C198.692 0 256 57.3076 256 128ZM18.9947 128C18.9947 188.202 67.7981 237.005 128 237.005C188.202 237.005 237.005 188.202 237.005 128C237.005 67.7981 188.202 18.9947 128 18.9947C67.7981 18.9947 18.9947 67.7981 18.9947 128Z" fill="#1B3C87"/>
<path d="M87.9234 148.887C84.1918 148.887 79.7634 148.887 76.1519 148.887C76.692 144.202 77.0112 142.725 77.4388 139.986C80.4073 120.971 83.9285 102.033 86.4296 82.9596C87.4165 75.4341 89.0759 69.2672 96.634 66.2951C98.5757 65.5316 100.724 64.8931 102.781 64.8845C126.175 64.7866 148.367 64.8453 171.762 64.8755C178.768 64.8845 182.547 69.7941 182.008 76.6919C181.063 88.7901 183.222 89.1139 171.207 89.1139C168.507 89.1139 165.905 88.8414 163.234 89.1139C156.084 89.1139 155.98 90.0439 155.98 83.1729C150.239 83.1729 145.084 83.0768 139.746 83.0768C133.447 83.0768 126.067 82.9811 119.769 82.9814C111.94 82.9817 110.139 81.8795 109.097 89.1139C106.787 105.157 105.475 115.198 103.156 131.24C102.701 134.391 101.5 144.935 100.456 148.887C96.0187 148.887 93.2367 148.887 87.9234 148.887Z" fill="#8AA5B8"/>
<path d="M132.149 111.477C132.039 111.696 131.381 115.425 130.614 119.812C129.846 124.199 129.517 128.037 129.846 128.257C130.065 128.586 134.672 128.805 140.045 128.805C148.929 128.805 149.696 128.915 149.696 130.998C149.696 134.398 143.226 175.964 142.568 177.17C142.129 177.718 132.039 178.157 119.427 178.157H97.0543V174.867V171.577H84.6615H72.2686L71.0623 178.925C70.0752 185.505 70.0752 186.711 71.83 189.124C75.7781 194.937 77.2038 195.156 115.698 195.375C150.464 195.704 151.451 195.595 157.373 193.182C165.05 190.111 166.476 187.15 168.889 170.48C169.766 163.571 172.069 148.107 173.824 136.263C175.689 124.308 177.114 113.78 177.114 112.903C177.114 111.477 173.934 111.258 154.632 111.258C142.239 111.258 132.149 111.367 132.149 111.477Z" fill="#1B3C87"/>
<line x1="321" y1="37" x2="321" y2="219" stroke="#1B3C87" stroke-width="2"/>
<path d="M396.206 71.7941C394.526 71.7941 393.106 71.2129 391.943 70.0504C390.845 68.888 390.297 67.4672 390.297 65.7882C390.297 64.1091 390.845 62.6883 391.943 61.5259C393.106 60.3635 394.526 59.7822 396.206 59.7822C397.885 59.7822 399.273 60.3635 400.371 61.5259C401.533 62.6883 402.115 64.1091 402.115 65.7882C402.115 67.4672 401.533 68.888 400.371 70.0504C399.273 71.2129 397.885 71.7941 396.206 71.7941ZM400.565 145.027C400.565 149.742 399.37 153.197 396.981 155.393C394.591 157.588 391.104 158.686 386.519 158.686H381.385V151.227H385.066C387.52 151.227 389.231 150.743 390.2 149.774C391.233 148.805 391.75 147.159 391.75 144.834V80.4155H400.565V145.027ZM462.566 80.4155V133.5H453.751V125.654C452.072 128.366 449.714 130.497 446.679 132.047C443.709 133.532 440.415 134.275 436.798 134.275C432.665 134.275 428.952 133.435 425.658 131.756C422.365 130.013 419.749 127.43 417.812 124.007C415.939 120.584 415.003 116.419 415.003 111.511V80.4155H423.721V110.348C423.721 115.579 425.045 119.615 427.693 122.457C430.34 125.234 433.957 126.622 438.542 126.622C443.256 126.622 446.97 125.169 449.682 122.263C452.394 119.357 453.751 115.127 453.751 109.573V80.4155H462.566ZM474.156 106.764C474.156 101.339 475.254 96.5927 477.45 92.5242C479.645 88.3911 482.648 85.1944 486.459 82.9341C490.333 80.6738 494.66 79.5436 499.439 79.5436C503.572 79.5436 507.415 80.5123 510.967 82.4497C514.518 84.3225 517.231 86.8089 519.104 89.9087V61.8165H528.016V133.5H519.104V123.522C517.36 126.687 514.777 129.302 511.354 131.369C507.931 133.371 503.927 134.372 499.342 134.372C494.628 134.372 490.333 133.209 486.459 130.885C482.648 128.56 479.645 125.298 477.45 121.101C475.254 116.903 474.156 112.124 474.156 106.764ZM519.104 106.861C519.104 102.857 518.296 99.3696 516.682 96.3989C515.067 93.4283 512.872 91.168 510.095 89.6181C507.382 88.0036 504.379 87.1963 501.086 87.1963C497.792 87.1963 494.789 87.9713 492.077 89.5212C489.365 91.0711 487.201 93.3314 485.587 96.3021C483.972 99.2727 483.165 102.76 483.165 106.764C483.165 110.833 483.972 114.384 485.587 117.42C487.201 120.39 489.365 122.683 492.077 124.297C494.789 125.847 497.792 126.622 501.086 126.622C504.379 126.622 507.382 125.847 510.095 124.297C512.872 122.683 515.067 120.39 516.682 117.42C518.296 114.384 519.104 110.865 519.104 106.861ZM588.635 80.4155L556.668 158.492H547.562L558.024 132.919L536.616 80.4155H546.4L563.061 123.426L579.529 80.4155H588.635ZM619.389 79.5436C623.974 79.5436 627.978 80.5446 631.4 82.5466C634.888 84.5486 637.471 87.0672 639.15 90.1024V80.4155H648.062V134.662C648.062 139.506 647.029 143.8 644.962 147.546C642.896 151.356 639.925 154.327 636.05 156.458C632.24 158.589 627.784 159.655 622.682 159.655C615.708 159.655 609.895 158.008 605.246 154.714C600.596 151.421 597.851 146.933 597.012 141.25H605.73C606.699 144.479 608.701 147.062 611.736 148.999C614.771 151.001 618.42 152.002 622.682 152.002C627.526 152.002 631.465 150.484 634.5 147.449C637.6 144.414 639.15 140.152 639.15 134.662V123.522C637.406 126.622 634.823 129.205 631.4 131.272C627.978 133.339 623.974 134.372 619.389 134.372C614.674 134.372 610.38 133.209 606.505 130.885C602.695 128.56 599.692 125.298 597.496 121.101C595.3 116.903 594.202 112.124 594.202 106.764C594.202 101.339 595.3 96.5927 597.496 92.5242C599.692 88.3911 602.695 85.1944 606.505 82.9341C610.38 80.6738 614.674 79.5436 619.389 79.5436ZM639.15 106.861C639.15 102.857 638.343 99.3696 636.728 96.3989C635.114 93.4283 632.918 91.168 630.141 89.6181C627.429 88.0036 624.426 87.1963 621.132 87.1963C617.839 87.1963 614.836 87.9713 612.123 89.5212C609.411 91.0711 607.248 93.3314 605.633 96.3021C604.019 99.2727 603.211 102.76 603.211 106.764C603.211 110.833 604.019 114.384 605.633 117.42C607.248 120.39 609.411 122.683 612.123 124.297C614.836 125.847 617.839 126.622 621.132 126.622C624.426 126.622 627.429 125.847 630.141 124.297C632.918 122.683 635.114 120.39 636.728 117.42C638.343 114.384 639.15 110.865 639.15 106.861ZM659.665 106.764C659.665 101.339 660.763 96.5927 662.959 92.5242C665.154 88.3911 668.157 85.1944 671.968 82.9341C675.842 80.6738 680.137 79.5436 684.851 79.5436C689.501 79.5436 693.537 80.5446 696.96 82.5466C700.383 84.5486 702.934 87.0672 704.613 90.1024V80.4155H713.525V133.5H704.613V123.619C702.869 126.719 700.253 129.302 696.766 131.369C693.343 133.371 689.34 134.372 684.754 134.372C680.04 134.372 675.778 133.209 671.968 130.885C668.157 128.56 665.154 125.298 662.959 121.101C660.763 116.903 659.665 112.124 659.665 106.764ZM704.613 106.861C704.613 102.857 703.805 99.3696 702.191 96.3989C700.576 93.4283 698.381 91.168 695.604 89.6181C692.891 88.0036 689.888 87.1963 686.595 87.1963C683.301 87.1963 680.298 87.9713 677.586 89.5212C674.874 91.0711 672.71 93.3314 671.096 96.3021C669.481 99.2727 668.674 102.76 668.674 106.764C668.674 110.833 669.481 114.384 671.096 117.42C672.71 120.39 674.874 122.683 677.586 124.297C680.298 125.847 683.301 126.622 686.595 126.622C689.888 126.622 692.891 125.847 695.604 124.297C698.381 122.683 700.576 120.39 702.191 117.42C703.805 114.384 704.613 110.865 704.613 106.861ZM737.236 61.8165V133.5H728.421V61.8165H737.236ZM756.813 71.7941C755.134 71.7941 753.713 71.2129 752.551 70.0504C751.389 68.888 750.807 67.4672 750.807 65.7882C750.807 64.1091 751.389 62.6883 752.551 61.5259C753.713 60.3635 755.134 59.7822 756.813 59.7822C758.428 59.7822 759.784 60.3635 760.882 61.5259C762.044 62.6883 762.625 64.1091 762.625 65.7882C762.625 67.4672 762.044 68.888 760.882 70.0504C759.784 71.2129 758.428 71.7941 756.813 71.7941ZM761.075 80.4155V133.5H752.26V80.4155H761.075ZM772.806 106.861C772.806 101.372 773.904 96.5927 776.099 92.5242C778.295 88.3911 781.33 85.1944 785.205 82.9341C789.144 80.6738 793.633 79.5436 798.67 79.5436C805.193 79.5436 810.553 81.1258 814.75 84.2902C819.013 87.4547 821.822 91.8461 823.178 97.4645H813.685C812.781 94.2355 811.005 91.6846 808.357 89.8118C805.774 87.939 802.545 87.0026 798.67 87.0026C793.633 87.0026 789.564 88.7462 786.464 92.2336C783.365 95.6563 781.815 100.532 781.815 106.861C781.815 113.254 783.365 118.195 786.464 121.682C789.564 125.169 793.633 126.913 798.67 126.913C802.545 126.913 805.774 126.009 808.357 124.201C810.94 122.392 812.716 119.809 813.685 116.451H823.178C821.757 121.876 818.916 126.235 814.653 129.528C810.391 132.757 805.063 134.372 798.67 134.372C793.633 134.372 789.144 133.242 785.205 130.981C781.33 128.721 778.295 125.524 776.099 121.391C773.904 117.258 772.806 112.415 772.806 106.861ZM839.493 71.7941C837.814 71.7941 836.393 71.2129 835.231 70.0504C834.068 68.888 833.487 67.4672 833.487 65.7882C833.487 64.1091 834.068 62.6883 835.231 61.5259C836.393 60.3635 837.814 59.7822 839.493 59.7822C841.107 59.7822 842.464 60.3635 843.561 61.5259C844.724 62.6883 845.305 64.1091 845.305 65.7882C845.305 67.4672 844.724 68.888 843.561 70.0504C842.464 71.2129 841.107 71.7941 839.493 71.7941ZM843.755 80.4155V133.5H834.94V80.4155H843.755ZM855.485 106.764C855.485 101.339 856.583 96.5927 858.779 92.5242C860.975 88.3911 863.978 85.1944 867.788 82.9341C871.663 80.6738 875.957 79.5436 880.672 79.5436C885.321 79.5436 889.358 80.5446 892.78 82.5466C896.203 84.5486 898.754 87.0672 900.433 90.1024V80.4155H909.345V133.5H900.433V123.619C898.689 126.719 896.074 129.302 892.587 131.369C889.164 133.371 885.16 134.372 880.575 134.372C875.86 134.372 871.598 133.209 867.788 130.885C863.978 128.56 860.975 125.298 858.779 121.101C856.583 116.903 855.485 112.124 855.485 106.764ZM900.433 106.861C900.433 102.857 899.626 99.3696 898.011 96.3989C896.397 93.4283 894.201 91.168 891.424 89.6181C888.712 88.0036 885.709 87.1963 882.415 87.1963C879.122 87.1963 876.119 87.9713 873.406 89.5212C870.694 91.0711 868.531 93.3314 866.916 96.3021C865.302 99.2727 864.494 102.76 864.494 106.764C864.494 110.833 865.302 114.384 866.916 117.42C868.531 120.39 870.694 122.683 873.406 124.297C876.119 125.847 879.122 126.622 882.415 126.622C885.709 126.622 888.712 125.847 891.424 124.297C894.201 122.683 896.397 120.39 898.011 117.42C899.626 114.384 900.433 110.865 900.433 106.861ZM928.988 71.7941C927.309 71.7941 925.889 71.2129 924.726 70.0504C923.628 68.888 923.079 67.4672 923.079 65.7882C923.079 64.1091 923.628 62.6883 924.726 61.5259C925.889 60.3635 927.309 59.7822 928.988 59.7822C930.667 59.7822 932.056 60.3635 933.154 61.5259C934.316 62.6883 934.897 64.1091 934.897 65.7882C934.897 67.4672 934.316 68.888 933.154 70.0504C932.056 71.2129 930.667 71.7941 928.988 71.7941ZM933.347 145.027C933.347 149.742 932.153 153.197 929.763 155.393C927.374 157.588 923.887 158.686 919.301 158.686H914.167V151.227H917.848C920.302 151.227 922.014 150.743 922.982 149.774C924.016 148.805 924.532 147.159 924.532 144.834V80.4155H933.347V145.027ZM957.085 89.0369C958.635 86.0016 960.831 83.6444 963.672 81.9654C966.578 80.2863 970.098 79.4468 974.231 79.4468V88.5525H971.906C962.025 88.5525 957.085 93.9126 957.085 104.633V133.5H948.27V80.4155H957.085V89.0369Z" fill="#1B3C87"/>
<path d="M987.216 134.081C985.537 134.081 984.116 133.5 982.954 132.338C981.791 131.175 981.21 129.754 981.21 128.075C981.21 126.396 981.791 124.975 982.954 123.813C984.116 122.651 985.537 122.069 987.216 122.069C988.831 122.069 990.187 122.651 991.285 123.813C992.447 124.975 993.028 126.396 993.028 128.075C993.028 129.754 992.447 131.175 991.285 132.338C990.187 133.5 988.831 134.081 987.216 134.081ZM1001.45 106.861C1001.45 101.372 1002.55 96.5927 1004.75 92.5242C1006.94 88.3911 1009.98 85.1944 1013.85 82.9341C1017.79 80.6738 1022.28 79.5436 1027.32 79.5436C1033.84 79.5436 1039.2 81.1258 1043.4 84.2902C1047.66 87.4547 1050.47 91.8461 1051.82 97.4645H1042.33C1041.43 94.2355 1039.65 91.6846 1037 89.8118C1034.42 87.939 1031.19 87.0026 1027.32 87.0026C1022.28 87.0026 1018.21 88.7462 1015.11 92.2336C1012.01 95.6563 1010.46 100.532 1010.46 106.861C1010.46 113.254 1012.01 118.195 1015.11 121.682C1018.21 125.169 1022.28 126.913 1027.32 126.913C1031.19 126.913 1034.42 126.009 1037 124.201C1039.59 122.392 1041.36 119.809 1042.33 116.451H1051.82C1050.4 121.876 1047.56 126.235 1043.3 129.528C1039.04 132.757 1033.71 134.372 1027.32 134.372C1022.28 134.372 1017.79 133.242 1013.85 130.981C1009.98 128.721 1006.94 125.524 1004.75 121.391C1002.55 117.258 1001.45 112.415 1001.45 106.861ZM1086.74 134.372C1081.77 134.372 1077.24 133.242 1073.18 130.981C1069.17 128.721 1066.01 125.524 1063.68 121.391C1061.42 117.194 1060.29 112.35 1060.29 106.861C1060.29 101.436 1061.46 96.6573 1063.78 92.5242C1066.17 88.3265 1069.4 85.1298 1073.47 82.9341C1077.54 80.6738 1082.09 79.5436 1087.13 79.5436C1092.16 79.5436 1096.72 80.6738 1100.78 82.9341C1104.85 85.1298 1108.05 88.2942 1110.37 92.4273C1112.76 96.5604 1113.96 101.372 1113.96 106.861C1113.96 112.35 1112.73 117.194 1110.28 121.391C1107.89 125.524 1104.63 128.721 1100.49 130.981C1096.36 133.242 1091.78 134.372 1086.74 134.372ZM1086.74 126.622C1089.9 126.622 1092.87 125.88 1095.65 124.394C1098.43 122.909 1100.66 120.681 1102.33 117.71C1104.08 114.74 1104.95 111.123 1104.95 106.861C1104.95 102.599 1104.11 98.9821 1102.43 96.0115C1100.75 93.0408 1098.56 90.8451 1095.84 89.4243C1093.13 87.939 1090.19 87.1963 1087.03 87.1963C1083.8 87.1963 1080.83 87.939 1078.12 89.4243C1075.47 90.8451 1073.34 93.0408 1071.72 96.0115C1070.11 98.9821 1069.3 102.599 1069.3 106.861C1069.3 111.188 1070.08 114.836 1071.63 117.807C1073.24 120.778 1075.37 123.006 1078.02 124.491C1080.67 125.912 1083.57 126.622 1086.74 126.622ZM1189.39 79.4468C1193.52 79.4468 1197.2 80.3186 1200.43 82.0622C1203.66 83.7413 1206.21 86.2922 1208.08 89.7149C1209.95 93.1377 1210.89 97.3031 1210.89 102.211V133.5H1202.17V103.47C1202.17 98.1749 1200.85 94.1387 1198.2 91.3617C1195.62 88.5202 1192.1 87.0995 1187.64 87.0995C1183.06 87.0995 1179.41 88.5848 1176.7 91.5555C1173.98 94.4616 1172.63 98.6915 1172.63 104.245V133.5H1163.91V103.47C1163.91 98.1749 1162.59 94.1387 1159.94 91.3617C1157.35 88.5202 1153.83 87.0995 1149.38 87.0995C1144.79 87.0995 1141.14 88.5848 1138.43 91.5555C1135.72 94.4616 1134.36 98.6915 1134.36 104.245V133.5H1125.55V80.4155H1134.36V88.0682C1136.11 85.2912 1138.43 83.1601 1141.34 81.6748C1144.31 80.1894 1147.57 79.4468 1151.12 79.4468C1155.58 79.4468 1159.52 80.4478 1162.94 82.4497C1166.36 84.4517 1168.91 87.3901 1170.59 91.2649C1172.08 87.5192 1174.53 84.6131 1177.96 82.5466C1181.38 80.48 1185.19 79.4468 1189.39 79.4468Z" fill="#8AA5B8"/>
<path d="M722.927 187.684L714.519 203.759V213.5H711.149V203.759L702.704 187.684H706.445L712.815 200.758L719.186 187.684H722.927ZM738.557 213.759C736.162 213.759 733.977 213.204 732.001 212.093C730.026 210.957 728.458 209.389 727.297 207.389C726.161 205.364 725.593 203.092 725.593 200.573C725.593 198.055 726.161 195.795 727.297 193.795C728.458 191.77 730.026 190.202 732.001 189.091C733.977 187.955 736.162 187.387 738.557 187.387C740.977 187.387 743.175 187.955 745.15 189.091C747.126 190.202 748.681 191.758 749.817 193.758C750.953 195.758 751.521 198.03 751.521 200.573C751.521 203.117 750.953 205.388 749.817 207.389C748.681 209.389 747.126 210.957 745.15 212.093C743.175 213.204 740.977 213.759 738.557 213.759ZM738.557 210.833C740.36 210.833 741.977 210.413 743.409 209.574C744.866 208.734 746.002 207.537 746.817 205.981C747.657 204.425 748.076 202.623 748.076 200.573C748.076 198.499 747.657 196.697 746.817 195.166C746.002 193.61 744.879 192.412 743.446 191.573C742.014 190.733 740.384 190.313 738.557 190.313C736.73 190.313 735.1 190.733 733.668 191.573C732.236 192.412 731.1 193.61 730.26 195.166C729.446 196.697 729.038 198.499 729.038 200.573C729.038 202.623 729.446 204.425 730.26 205.981C731.1 207.537 732.236 208.734 733.668 209.574C735.125 210.413 736.755 210.833 738.557 210.833ZM759.637 187.684V204.018C759.637 206.314 760.193 208.018 761.304 209.129C762.44 210.241 764.008 210.796 766.008 210.796C767.984 210.796 769.527 210.241 770.638 209.129C771.774 208.018 772.342 206.314 772.342 204.018V187.684H775.713V203.981C775.713 206.129 775.28 207.944 774.416 209.426C773.552 210.883 772.379 211.969 770.897 212.685C769.441 213.401 767.798 213.759 765.971 213.759C764.144 213.759 762.49 213.401 761.008 212.685C759.551 211.969 758.39 210.883 757.526 209.426C756.687 207.944 756.267 206.129 756.267 203.981V187.684H759.637ZM795.299 213.5L789.151 202.944H785.076V213.5H781.706V187.684H790.04C791.99 187.684 793.632 188.017 794.966 188.684C796.324 189.35 797.336 190.252 798.003 191.388C798.67 192.523 799.003 193.82 799.003 195.277C799.003 197.055 798.484 198.623 797.447 199.981C796.435 201.339 794.904 202.24 792.855 202.685L799.336 213.5H795.299ZM785.076 200.24H790.04C791.867 200.24 793.237 199.795 794.151 198.907C795.065 197.993 795.521 196.783 795.521 195.277C795.521 193.746 795.065 192.56 794.151 191.721C793.262 190.881 791.891 190.462 790.04 190.462H785.076V200.24ZM847.302 187.684L839.82 213.5H836.042L830.042 192.721L823.819 213.5L820.078 213.537L812.856 187.684H816.449L822.079 209.574L828.301 187.684H832.079L838.005 209.5L843.672 187.684H847.302ZM854.732 190.425V199.055H864.14V201.833H854.732V210.722H865.251V213.5H851.361V187.647H865.251V190.425H854.732ZM883.648 200.203C884.587 200.351 885.438 200.734 886.204 201.351C886.994 201.968 887.611 202.734 888.056 203.648C888.525 204.561 888.76 205.537 888.76 206.574C888.76 207.882 888.426 209.068 887.76 210.129C887.093 211.167 886.118 211.994 884.834 212.611C883.574 213.204 882.08 213.5 880.352 213.5H870.722V187.684H879.981C881.735 187.684 883.228 187.98 884.463 188.573C885.698 189.14 886.624 189.918 887.241 190.906C887.858 191.894 888.167 193.005 888.167 194.24C888.167 195.771 887.747 197.042 886.908 198.055C886.093 199.042 885.006 199.758 883.648 200.203ZM874.092 198.832H879.759C881.339 198.832 882.562 198.462 883.426 197.721C884.29 196.98 884.722 195.956 884.722 194.647C884.722 193.338 884.29 192.314 883.426 191.573C882.562 190.832 881.315 190.462 879.685 190.462H874.092V198.832ZM880.055 210.722C881.735 210.722 883.043 210.327 883.982 209.537C884.92 208.747 885.389 207.648 885.389 206.24C885.389 204.808 884.895 203.685 883.908 202.87C882.92 202.03 881.599 201.61 879.944 201.61H874.092V210.722H880.055ZM912.238 213.759C910.534 213.759 909.003 213.463 907.645 212.87C906.312 212.253 905.263 211.413 904.497 210.352C903.732 209.265 903.336 208.018 903.312 206.611H906.905C907.028 207.821 907.522 208.845 908.386 209.685C909.275 210.5 910.559 210.907 912.238 210.907C913.843 210.907 915.103 210.512 916.016 209.722C916.955 208.907 917.424 207.87 917.424 206.611C917.424 205.623 917.152 204.82 916.609 204.203C916.066 203.586 915.387 203.117 914.572 202.796C913.757 202.475 912.658 202.129 911.275 201.759C909.571 201.314 908.201 200.87 907.164 200.425C906.151 199.981 905.275 199.289 904.534 198.351C903.818 197.388 903.46 196.104 903.46 194.499C903.46 193.091 903.818 191.844 904.534 190.758C905.25 189.671 906.25 188.832 907.534 188.239C908.843 187.647 910.337 187.35 912.016 187.35C914.436 187.35 916.411 187.955 917.942 189.165C919.498 190.375 920.375 191.98 920.572 193.98H916.868C916.745 192.993 916.226 192.128 915.313 191.388C914.399 190.622 913.189 190.239 911.683 190.239C910.275 190.239 909.127 190.61 908.238 191.35C907.349 192.067 906.905 193.079 906.905 194.388C906.905 195.326 907.164 196.092 907.682 196.684C908.226 197.277 908.88 197.734 909.645 198.055C910.436 198.351 911.534 198.697 912.942 199.092C914.646 199.561 916.016 200.03 917.053 200.499C918.09 200.944 918.979 201.647 919.72 202.61C920.461 203.549 920.831 204.833 920.831 206.463C920.831 207.722 920.498 208.907 919.831 210.018C919.165 211.129 918.177 212.031 916.868 212.722C915.559 213.414 914.016 213.759 912.238 213.759ZM929.532 190.425V199.055H938.94V201.833H929.532V210.722H940.052V213.5H926.162V187.647H940.052V190.425H929.532ZM959.116 213.5L952.967 202.944H948.893V213.5H945.522V187.684H953.856C955.807 187.684 957.449 188.017 958.782 188.684C960.14 189.35 961.153 190.252 961.819 191.388C962.486 192.523 962.819 193.82 962.819 195.277C962.819 197.055 962.301 198.623 961.264 199.981C960.251 201.339 958.72 202.24 956.671 202.685L963.153 213.5H959.116ZM948.893 200.24H953.856C955.683 200.24 957.054 199.795 957.967 198.907C958.881 197.993 959.338 196.783 959.338 195.277C959.338 193.746 958.881 192.56 957.967 191.721C957.078 190.881 955.708 190.462 953.856 190.462H948.893V200.24ZM989.762 187.684L980.02 213.5H976.131L966.39 187.684H969.983L978.094 209.944L986.206 187.684H989.762ZM997.199 187.684V213.5H993.828V187.684H997.199ZM1002.05 200.573C1002.05 198.055 1002.62 195.795 1003.76 193.795C1004.89 191.77 1006.44 190.19 1008.39 189.054C1010.36 187.918 1012.55 187.35 1014.94 187.35C1017.76 187.35 1020.22 188.029 1022.31 189.387C1024.41 190.746 1025.94 192.672 1026.91 195.166H1022.87C1022.15 193.61 1021.12 192.412 1019.76 191.573C1018.43 190.733 1016.82 190.313 1014.94 190.313C1013.14 190.313 1011.52 190.733 1010.09 191.573C1008.66 192.412 1007.54 193.61 1006.72 195.166C1005.91 196.697 1005.5 198.499 1005.5 200.573C1005.5 202.623 1005.91 204.425 1006.72 205.981C1007.54 207.512 1008.66 208.697 1010.09 209.537C1011.52 210.376 1013.14 210.796 1014.94 210.796C1016.82 210.796 1018.43 210.389 1019.76 209.574C1021.12 208.734 1022.15 207.537 1022.87 205.981H1026.91C1025.94 208.45 1024.41 210.364 1022.31 211.722C1020.22 213.056 1017.76 213.722 1014.94 213.722C1012.55 213.722 1010.36 213.167 1008.39 212.055C1006.44 210.92 1004.89 209.352 1003.76 207.351C1002.62 205.351 1002.05 203.092 1002.05 200.573ZM1035.67 190.425V199.055H1045.07V201.833H1035.67V210.722H1046.19V213.5H1032.3V187.647H1046.19V190.425H1035.67ZM1079.16 195.24C1079.16 197.388 1078.42 199.178 1076.94 200.61C1075.48 202.018 1073.25 202.722 1070.23 202.722H1065.27V213.5H1061.9V187.684H1070.23C1073.15 187.684 1075.36 188.387 1076.86 189.795C1078.4 191.202 1079.16 193.017 1079.16 195.24ZM1070.23 199.944C1072.11 199.944 1073.49 199.536 1074.38 198.721C1075.27 197.906 1075.72 196.746 1075.72 195.24C1075.72 192.054 1073.89 190.462 1070.23 190.462H1065.27V199.944H1070.23ZM1098.98 207.759H1087.72L1085.65 213.5H1082.09L1091.42 187.832H1095.31L1104.61 213.5H1101.06L1098.98 207.759ZM1098.02 205.018L1093.35 191.98L1088.68 205.018H1098.02ZM1122.64 213.5L1116.49 202.944H1112.42V213.5H1109.05V187.684H1117.38C1119.33 187.684 1120.98 188.017 1122.31 188.684C1123.67 189.35 1124.68 190.252 1125.35 191.388C1126.01 192.523 1126.35 193.82 1126.35 195.277C1126.35 197.055 1125.83 198.623 1124.79 199.981C1123.78 201.339 1122.25 202.24 1120.2 202.685L1126.68 213.5H1122.64ZM1112.42 200.24H1117.38C1119.21 200.24 1120.58 199.795 1121.49 198.907C1122.41 197.993 1122.86 196.783 1122.86 195.277C1122.86 193.746 1122.41 192.56 1121.49 191.721C1120.61 190.881 1119.23 190.462 1117.38 190.462H1112.42V200.24ZM1147.84 187.684V190.425H1140.81V213.5H1137.44V190.425H1130.36V187.684H1147.84ZM1172.66 213.5H1169.29L1155.73 192.943V213.5H1152.36V187.647H1155.73L1169.29 208.166V187.647H1172.66V213.5ZM1182.15 190.425V199.055H1191.56V201.833H1182.15V210.722H1192.67V213.5H1178.78V187.647H1192.67V190.425H1182.15ZM1211.73 213.5L1205.58 202.944H1201.51V213.5H1198.14V187.684H1206.47C1208.42 187.684 1210.06 188.017 1211.4 188.684C1212.76 189.35 1213.77 190.252 1214.43 191.388C1215.1 192.523 1215.43 193.82 1215.43 195.277C1215.43 197.055 1214.92 198.623 1213.88 199.981C1212.87 201.339 1211.34 202.24 1209.29 202.685L1215.77 213.5H1211.73ZM1201.51 200.24H1206.47C1208.3 200.24 1209.67 199.795 1210.58 198.907C1211.5 197.993 1211.95 196.783 1211.95 195.277C1211.95 193.746 1211.5 192.56 1210.58 191.721C1209.69 190.881 1208.32 190.462 1206.47 190.462H1201.51V200.24Z" fill="#8AA5B8"/>
<path d="M1246.5 89.25C1255.47 89.25 1262.75 81.9746 1262.75 73C1262.75 64.0254 1255.47 56.75 1246.5 56.75C1237.53 56.75 1230.25 64.0254 1230.25 73C1230.25 81.9746 1237.53 89.25 1246.5 89.25Z" stroke="#8AA5B8" stroke-width="3.25" stroke-linecap="round" stroke-linejoin="round"/>
<path d="M1236.75 68.9375H1243.25M1240 68.9375V77.0625M1248.12 77.0625V68.9375L1252.19 73.8125L1256.25 68.9375V77.0625" stroke="#8AA5B8" stroke-width="3.25" stroke-linecap="round" stroke-linejoin="round"/>
</svg>
