<svg width="1024" height="1024" viewBox="0 0 1024 1024" fill="none" xmlns="http://www.w3.org/2000/svg">
<path d="M1024 512C1024 794.77 794.77 1024 512 1024C229.23 1024 0 794.77 0 512C0 229.23 229.23 0 512 0C794.77 0 1024 229.23 1024 512ZM75.9789 512C75.9789 752.808 271.192 948.021 512 948.021C752.808 948.021 948.021 752.808 948.021 512C948.021 271.192 752.808 75.9789 512 75.9789C271.192 75.9789 75.9789 271.192 75.9789 512Z" fill="#1B3C87"/>
<path d="M351.694 595.549C336.767 595.549 319.054 595.549 304.608 595.549C306.768 576.81 308.045 570.901 309.755 559.943C321.629 483.884 335.714 408.132 345.718 331.839C349.666 301.737 356.304 277.069 386.536 265.181C394.303 262.127 402.898 259.573 411.124 259.538C504.701 259.147 593.47 259.382 687.049 259.502C715.072 259.538 730.19 279.177 728.034 306.768C724.253 355.161 732.889 356.456 684.827 356.456C674.029 356.456 663.621 355.366 652.935 356.456C624.338 356.456 623.92 360.176 623.92 332.692C600.955 332.692 580.336 332.307 558.984 332.307C533.79 332.307 504.268 331.925 479.074 331.926C447.759 331.927 440.555 327.518 436.388 356.456C427.149 420.629 421.9 460.794 412.625 524.962C410.803 537.564 405.998 579.739 401.823 595.549C384.075 595.549 372.947 595.549 351.694 595.549Z" fill="#8AA5B8"/>
<path d="M528.597 445.907C528.158 446.784 525.526 461.7 522.455 479.247C519.384 496.794 518.068 512.148 519.384 513.026C520.262 514.342 538.686 515.219 560.182 515.219C595.715 515.219 598.786 515.658 598.786 523.993C598.786 537.592 572.904 703.853 570.272 708.679C568.517 710.872 528.158 712.627 477.709 712.627H388.218V699.467V686.306H338.646H289.075L284.249 715.698C280.301 742.019 280.301 746.845 287.32 756.496C303.113 779.746 308.816 780.623 462.794 781.501C601.857 782.817 605.805 782.378 629.494 772.727C660.202 760.444 665.905 748.599 675.556 681.919C679.065 654.282 688.278 592.428 695.297 545.05C702.754 497.233 708.457 455.119 708.457 451.61C708.457 445.907 695.735 445.03 618.527 445.03C568.956 445.03 528.597 445.468 528.597 445.907Z" fill="#1B3C87"/>
</svg>
